<?xml version="1.0" ?><svg viewBox="0 0 512 512" xmlns="http://www.w3.org/2000/svg"><g id="Hospital"><polygon points="274.924 162.146 237.076 162.146 237.076 180.951 218.271 180.951 218.271 218.8 237.076 218.8 237.076 237.605 274.924 237.605 274.924 218.8 293.729 218.8 293.729 180.951 274.924 180.951 274.924 162.146"/><path d="M419.6172,385.4634V241.7451a25.1686,25.1686,0,0,0-25.14-25.14h-53.54V138.5415a25.033,25.033,0,0,0-25.0044-25.0049H196.0669a25.033,25.033,0,0,0-25.0044,25.0049V216.605h-53.54a25.1686,25.1686,0,0,0-25.14,25.14V385.4634H68.4341v13H443.5659v-13Zm-314.2344,0V241.7451a12.1539,12.1539,0,0,1,12.14-12.14h53.54V385.4634Zm183.1221,0V314.0342h12.7285v-13H210.7666v13h12.7285v71.4292H184.0625V138.5415a12.0183,12.0183,0,0,1,12.0044-12.0049H315.9331a12.0183,12.0183,0,0,1,12.0044,12.0049V385.4634ZM340.9375,229.605h53.54a12.1539,12.1539,0,0,1,12.14,12.14V385.4634h-65.68Z"/></g></svg>