<?xml version="1.0" ?><svg style="enable-background:new 0 0 64 64;" version="1.1" viewBox="0 0 64 64" xml:space="preserve" xmlns="http://www.w3.org/2000/svg" xmlns:xlink="http://www.w3.org/1999/xlink"><style type="text/css">
	.st0{fill:#D1FEFB;}
	.st1{fill:#00A6FF;}
	.st2{fill:#FFAA20;}
	.st3{fill:#FF3636;}
	.st4{fill:#E83636;}
	.st5{fill:#FFF5CB;}
	.st6{fill:#F7F2DF;}
	.st7{fill:#FFFFFF;}
	.st8{fill:#594A42;}
	.st9{fill:#9B8579;}
	.st10{fill:#4F6361;}
	.st11{fill:#FF6663;}
	.st12{fill:#C5FFFD;}
	.st13{fill:#A5E5E1;}
	.st14{fill:#AEEDEA;}
	.st15{fill:#8DCEC8;}
	.st16{fill:#A7A9AC;}
	.st17{fill:#F9F0CA;}
	.st18{fill:#D1D3D4;}
	.st19{fill:#88D9E6;}
	.st20{fill:#8DC63F;}
	.st21{fill:#80AF35;}
	.st22{fill:#E6BE95;}
	.st23{fill:#C69B73;}
	.st24{fill:#39B54A;}
	.st25{fill:#2E9E38;}
	.st26{fill:#78C0E0;}
	.st27{fill:#E5D1B3;}
	.st28{fill:#D3BC9C;}
	.st29{fill:#FFEECE;}
	.st30{fill:#EAD8BB;}
	.st31{fill:#D14242;}
	.st32{fill:#EA5757;}
	.st33{fill:#FBFBF2;}
	.st34{fill:#BCBEC0;}
	.st35{fill:#7BDFF2;}
	.st36{fill:#58ABAF;}
	.st37{fill:#6EC3CC;}
	.st38{fill:#ACEAE7;}
	.st39{fill:#0399DB;}
	.st40{fill:#E0D5A4;}
	.st41{fill:#FAA916;}
	.st42{fill:#EF5656;}
	.st43{fill:#231F20;}
	.st44{fill:#FFC064;}
	.st45{fill:#542C2C;}
	.st46{fill:#0097CC;}
	.st47{fill:#EDEDE2;}
	.st48{fill:#EA9924;}
	.st49{fill:#A7ACAF;}
	.st50{fill:#EAE9D6;}
	.st51{fill:#D8AF8B;}
	.st52{fill:#C69C77;}
	.st53{fill:#B58C6D;}
	.st54{fill:#65AFC9;}
	.st55{fill:#61CCDB;}
	.st56{fill:#E8E7D1;}
	.st57{fill:#419191;}
	.st58{fill:#EAEADA;}
	.st59{fill:#0691C1;}
	.st60{fill:#D14747;}
	.st61{fill:#E53030;}
	.st62{fill:#B2EDEA;}
	.st63{fill:#ED5454;}
	.st64{fill:#C1B584;}
	.st65{fill:#414042;}
	.st66{fill:#2C2B2D;}
	.st67{fill:#E5A44E;}
	.st68{fill:#A9EAE6;}
	.st69{fill:#F2B15A;}
	.st70{fill:#ED5656;}
	.st71{fill:#EA5353;}
	.st72{fill:#E8E8D9;}
	.st73{fill:#383F4C;}
</style><g id="Layer_3"><path class="st11" d="M47.18,29.77l9.53-9.53c0.21-0.21,0.21-0.55,0-0.76L44.53,7.29c-0.13-0.13-0.28-0.16-0.38-0.16   c-0.1,0-0.25,0.03-0.38,0.16l-8.91,8.91L47.18,29.77z"/><g><path class="st11" d="M17.02,34.04l-9.72,9.72c-0.21,0.21-0.21,0.55,0,0.76l12.18,12.18c0.13,0.13,0.28,0.16,0.38,0.16    c0.1,0,0.25-0.03,0.38-0.16l9.94-9.94L17.02,34.04z"/><path class="st11" d="M56.82,43.88l-8.26-8.26L44.94,32L32,19.06l-7.8-7.8l-4.07-4.07c-0.07-0.07-0.17-0.11-0.27-0.11    c-0.1,0-0.2,0.04-0.27,0.11l-12.4,12.4c-0.15,0.15-0.15,0.39,0,0.54l10.06,10.06h0l17.28,17.28l9.36,9.36    c0.07,0.07,0.17,0.11,0.27,0.11c0.1,0,0.2-0.04,0.27-0.11l12.4-12.4C56.97,44.27,56.97,44.03,56.82,43.88z"/></g></g><g id="Layer_1"><g id="XMLID_2_"><g><path class="st45" d="M60,40.7c1.9,1.9,1.9,5,0,6.9L47.6,60c-0.95,0.95-2.2,1.43-3.45,1.43s-2.5-0.48-3.45-1.43L32,51.31     l-8.58,8.58c-0.99,0.98-2.28,1.47-3.57,1.47c-1.29,0-2.58-0.49-3.56-1.47L4.11,47.71c-1.96-1.96-1.96-5.16,0-7.13L12.69,32     L4,23.3c-1.9-1.9-1.9-5,0-6.9L16.4,4c1.9-1.9,5-1.91,6.9,0c0.59,0.58,0.59,1.53,0,2.12c-0.44,0.44-1.08,0.54-1.62,0.33     c-0.18-0.07-0.35-0.19-0.5-0.33c-0.73-0.73-1.93-0.74-2.66,0l-12.4,12.4c-0.73,0.74-0.73,1.93,0,2.66l25.4,25.4l11.3,11.3     c0.73,0.74,1.93,0.73,2.66,0l12.4-12.4c0.73-0.74,0.73-1.93,0-2.66L43.69,28.63l-9.54-9.54l-8.88-8.88     c-0.36-0.37-0.5-0.88-0.4-1.35c0.05-0.28,0.18-0.55,0.4-0.77c0.59-0.59,1.54-0.59,2.12,0l4.61,4.6l8.58-8.58     c1.97-1.96,5.17-1.96,7.13,0l1.34,1.34c0.59,0.59,0.59,1.53,0,2.12s-1.53,0.59-2.12,0l-1.34-1.34c-0.79-0.79-2.09-0.79-2.88,0     l-8.59,8.59l15.06,15.06l8.59-8.59c0.79-0.79,0.79-2.08,0-2.88c-0.59-0.59-0.59-1.54,0-2.12c0.58-0.59,1.53-0.59,2.12,0     c1.96,1.96,1.96,5.16,0,7.13L51.31,32L60,40.7z M21.29,57.77l8.59-8.59L14.82,34.12l-8.59,8.59c-0.79,0.79-0.79,2.08,0,2.88     l12.18,12.18C19.2,58.56,20.5,58.56,21.29,57.77z"/></g></g><path class="st45" d="M56.28,20.12c0.59,0.59,0.59,1.54,0,2.12c-0.29,0.3-0.67,0.44-1.06,0.44c-0.38,0-0.76-0.14-1.06-0.44   L49.92,18c-0.59-0.59-0.59-1.54,0-2.12c0.58-0.59,1.53-0.59,2.12,0L56.28,20.12z"/><path class="st45" d="M56.28,41.76c0.59,0.58,0.59,1.53,0,2.12l-4.24,4.24c-0.29,0.29-0.68,0.44-1.06,0.44s-0.77-0.15-1.06-0.44   c-0.59-0.58-0.59-1.53,0-2.12l4.24-4.24C54.75,41.17,55.7,41.17,56.28,41.76z"/><path class="st45" d="M53.64,10.04c0.59,0.58,0.59,1.53,0,2.12c-0.29,0.29-0.68,0.44-1.06,0.44c-0.38,0-0.77-0.15-1.06-0.44   l-0.9-0.9c-0.59-0.58-0.59-1.53,0-2.12c0.58-0.59,1.53-0.59,2.12,0L53.64,10.04z"/><path class="st45" d="M51.42,24.98c0.59,0.59,0.59,1.54,0,2.12c-0.29,0.3-0.67,0.44-1.06,0.44c-0.38,0-0.77-0.14-1.06-0.44   l-4.24-4.24c-0.59-0.59-0.59-1.53,0-2.12c0.58-0.59,1.53-0.59,2.12,0L51.42,24.98z"/><path class="st45" d="M51.42,36.9c0.59,0.58,0.59,1.53,0,2.12l-4.24,4.24c-0.29,0.29-0.68,0.44-1.06,0.44   c-0.38,0-0.77-0.15-1.06-0.44c-0.59-0.59-0.59-1.53,0-2.12l4.24-4.24C49.89,36.31,50.84,36.31,51.42,36.9z"/><path class="st45" d="M48.12,11.96c0.59,0.59,0.59,1.54,0,2.12c-0.29,0.29-0.68,0.44-1.06,0.44c-0.38,0-0.77-0.15-1.06-0.44   l-4.24-4.24c-0.59-0.59-0.59-1.54,0-2.12c0.58-0.59,1.53-0.59,2.12,0L48.12,11.96z"/><path class="st45" d="M48.12,49.92c0.59,0.58,0.59,1.53,0,2.12l-4.24,4.24c-0.3,0.3-0.68,0.44-1.06,0.44   c-0.39,0-0.77-0.14-1.06-0.44c-0.59-0.58-0.59-1.53,0-2.12L46,49.92C46.59,49.33,47.54,49.33,48.12,49.92z"/><path class="st45" d="M44.81,33.28c1.07,1.07,1.07,2.81,0,3.88l-7.65,7.65c-0.53,0.54-1.24,0.8-1.94,0.8c-0.7,0-1.41-0.26-1.94-0.8   L19.19,30.72c-1.07-1.07-1.07-2.81,0-3.88l7.65-7.65c1.07-1.07,2.81-1.07,3.88,0l1.67,1.66c0.58,0.59,0.58,1.54,0,2.12   c-0.59,0.59-1.54,0.59-2.13,0l-1.48-1.48l-7.29,7.29l13.73,13.73l7.29-7.29l-2.71-2.71c-0.58-0.58-0.58-1.53,0-2.12   c0.59-0.58,1.54-0.58,2.13,0L44.81,33.28z"/><path class="st45" d="M43.26,16.82c0.59,0.59,0.59,1.54,0,2.12c-0.29,0.29-0.68,0.44-1.06,0.44s-0.77-0.15-1.06-0.44L36.9,14.7   c-0.59-0.59-0.59-1.54,0-2.12c0.58-0.59,1.53-0.59,2.12,0L43.26,16.82z"/><path class="st45" d="M43.26,45.06c0.59,0.58,0.59,1.53,0,2.12l-4.24,4.24c-0.29,0.3-0.68,0.44-1.06,0.44   c-0.39,0-0.77-0.14-1.06-0.44c-0.59-0.58-0.59-1.53,0-2.12l4.24-4.24C41.73,44.47,42.67,44.47,43.26,45.06z"/><path class="st45" d="M38.24,26.7c0.58,0.59,0.58,1.54,0,2.13c-0.3,0.29-0.68,0.43-1.06,0.43c-0.39,0-0.77-0.14-1.06-0.43   l-1.54-1.54c-0.58-0.58-0.58-1.53,0-2.12c0.59-0.58,1.54-0.58,2.13,0L38.24,26.7z"/><path class="st45" d="M27.1,12.58c0.59,0.58,0.59,1.53,0,2.12l-4.24,4.24c-0.29,0.29-0.68,0.44-1.06,0.44   c-0.38,0-0.77-0.15-1.06-0.44c-0.59-0.58-0.59-1.53,0-2.12l4.24-4.24C25.57,11.99,26.52,11.99,27.1,12.58z"/><path class="st45" d="M27.1,49.3c0.59,0.59,0.59,1.54,0,2.12c-0.29,0.3-0.67,0.44-1.06,0.44c-0.38,0-0.77-0.14-1.06-0.44   l-4.24-4.24c-0.59-0.59-0.59-1.54,0-2.12c0.59-0.59,1.53-0.59,2.12,0L27.1,49.3z"/><path class="st45" d="M22.24,7.72c0.3,0.29,0.44,0.67,0.44,1.06c0,0.38-0.14,0.76-0.44,1.06L18,14.08   c-0.29,0.29-0.68,0.44-1.06,0.44c-0.38,0-0.77-0.15-1.06-0.44c-0.59-0.58-0.59-1.53,0-2.12l4.24-4.24c0.3-0.3,0.68-0.44,1.06-0.44   C21.57,7.28,21.95,7.42,22.24,7.72z"/><path class="st45" d="M22.24,54.16c0.59,0.59,0.59,1.54,0,2.12c-0.29,0.3-0.67,0.44-1.06,0.44c-0.38,0-0.76-0.14-1.06-0.44   l-4.24-4.24c-0.59-0.59-0.59-1.54,0-2.12c0.58-0.59,1.53-0.59,2.12,0L22.24,54.16z"/><path class="st45" d="M18.94,20.74c0.59,0.59,0.59,1.53,0,2.12L14.7,27.1c-0.29,0.3-0.68,0.44-1.06,0.44   c-0.39,0-0.77-0.14-1.06-0.44c-0.59-0.58-0.59-1.53,0-2.12l4.24-4.24C17.41,20.15,18.36,20.15,18.94,20.74z"/><path class="st45" d="M18.94,41.14c0.59,0.59,0.59,1.53,0,2.12c-0.29,0.29-0.68,0.44-1.06,0.44c-0.38,0-0.77-0.15-1.06-0.44   l-4.24-4.24c-0.59-0.59-0.59-1.54,0-2.12c0.58-0.59,1.53-0.59,2.12,0L18.94,41.14z"/><path class="st45" d="M14.08,15.88c0.59,0.58,0.59,1.53,0,2.12l-4.24,4.24c-0.3,0.3-0.68,0.44-1.06,0.44   c-0.39,0-0.77-0.14-1.06-0.44c-0.59-0.58-0.59-1.53,0-2.12l4.24-4.24C12.55,15.29,13.5,15.29,14.08,15.88z"/><path class="st45" d="M14.08,46c0.59,0.59,0.59,1.54,0,2.12c-0.29,0.29-0.68,0.44-1.06,0.44c-0.38,0-0.77-0.15-1.06-0.44   l-4.24-4.24c-0.59-0.59-0.59-1.54,0-2.12c0.58-0.59,1.53-0.59,2.12,0L14.08,46z"/><path class="st45" d="M13.06,2.94c0.59,0.59,0.59,1.53,0,2.12l-0.65,0.66c-0.3,0.29-0.68,0.44-1.07,0.44   c-0.38,0-0.76-0.15-1.06-0.44c-0.58-0.59-0.58-1.54,0-2.13l0.66-0.65C11.53,2.35,12.47,2.35,13.06,2.94z"/><path class="st45" d="M9.35,6.65c0.58,0.59,0.58,1.54,0,2.13l-4.29,4.28C4.77,13.35,4.38,13.5,4,13.5s-0.77-0.15-1.06-0.44   c-0.59-0.59-0.59-1.53,0-2.12l4.28-4.29C7.81,6.07,8.76,6.07,9.35,6.65z"/></g><g id="Fill"/></svg>