<?xml version="1.0" ?><svg height="612" id="svg1650" version="1.0" width="612" xmlns="http://www.w3.org/2000/svg" xmlns:cc="http://creativecommons.org/ns#" xmlns:dc="http://purl.org/dc/elements/1.1/" xmlns:inkscape="http://www.inkscape.org/namespaces/inkscape" xmlns:rdf="http://www.w3.org/1999/02/22-rdf-syntax-ns#" xmlns:sodipodi="http://sodipodi.sourceforge.net/DTD/sodipodi-0.dtd" xmlns:svg="http://www.w3.org/2000/svg"><defs id="defs1652"><marker id="ArrowEnd" markerHeight="3" markerUnits="strokeWidth" markerWidth="4" orient="auto" refX="0" refY="5" viewBox="0 0 10 10"><path d="M 0,0 L 10,5 L 0,10 L 0,0 z" id="path1655"/></marker><marker id="ArrowStart" markerHeight="3" markerUnits="strokeWidth" markerWidth="4" orient="auto" refX="10" refY="5" viewBox="0 0 10 10"><path d="M 10,0 L 0,5 L 10,10 L 10,0 z" id="path1658"/></marker></defs><g id="g7958" transform="translate(-8.19e-2,-0.5853944)"><g id="g1660"><path d="M 82.4318,17.9239 C 41.0968,17.9239 17.8608,39.2949 17.8608,82.9599 L 17.8608,533.082 C 17.8608,573.925 38.7518,595.31 80.0528,595.31 L 532.077,595.31 C 573.38,595.31 594.303,574.99 594.303,533.082 L 594.303,82.9599 C 594.303,40.3599 573.38,17.9239 530.78,17.9239 C 530.78,17.9239 82.2888,17.7819 82.4318,17.9239 z" id="path1662" style="fill:#000000;stroke:#ffffff;stroke-width:3.40799999"/></g><g id="g1664"><path d="M 251.365,110.724 L 377.32,110.724 L 377.32,229.369 L 495.924,229.369 L 495.924,354.931 L 378.28,354.931 L 378.28,473.368 L 251.844,473.368 L 251.844,354.931 L 133.24,354.931 L 133.24,229.369 L 251.365,229.369 L 251.365,110.724 z" id="path1666" style="fill:#ffffff;stroke:none"/></g></g></svg>